{"title":"American Car Prospector S01E08 - shadowCopy","uid":9457076,"size":606729329,"categoryP":"video","categoryS":"tv_shows","magnet":"?xt=urn:btih:7f2e4328fa2a62ec68feb49016e6e553316b4432&amp;dn=American+Car+Prospector+S01E08+-+shadowCopy&amp;tr=udp%3A%2F%2Ftracker.openbittorrent.com%3A80&amp;tr=udp%3A%2F%2Fopen.demonii.com%3A1337&amp;tr=udp%3A%2F%2Ftracker.coppersurfer.tk%3A6969&amp;tr=udp%3A%2F%2Fexodus.desync.com%3A6969","seeders":1,"leechers":0,"uploader":"tlbslicer","files":3,"time":1389289364,"description":" &lt;a href=&quot;http://s13.postimg.org/m0dscolcn/vlcsnap.png&quot; rel=&quot;nofollow&quot; target=&quot;_NEW&quot;&gt;http://s13.postimg.org/m0dscolcn/vlcsnap.png&lt;/a&gt;\n\n\nFormat                                   : MPEG-4\nFormat profile                           : Base Media\nCodec ID                                 : isom\nFile size                                : 579 MiB\nDuration                                 : 44mn 1s\nOverall bit rate mode                    : Variable\nOverall bit rate                         : 1 837 Kbps\nWriting application                      : Lavf54.63.104\n\nVideo\nID                                       : 1\nFormat                                   : AVC\nFormat/Info                              : Advanced Video Codec\nFormat profile                           : &lt;a class=&quot;__cf_email__&quot; href=&quot;/cdn-cgi/l/email-protection&quot; data-cfemail=&quot;793418101739354a5749&quot;&gt;[email&amp;#160;protected]&lt;/a&gt;&lt;script cf-hash='f9e31' type=&quot;text/javascript&quot;&gt;\n/* &lt;![CDATA[ */!function(){try{var t=&quot;currentScript&quot;in document?document.currentScript:function(){for(var t=document.getElementsByTagName(&quot;script&quot;),e=t.length;e--;)if(t[e].getAttribute(&quot;cf-hash&quot;))return t[e]}();if(t&amp;&amp;t.previousSibling){var e,r,n,i,c=t.previousSibling,a=c.getAttribute(&quot;data-cfemail&quot;);if(a){for(e=&quot;&quot;,r=parseInt(a.substr(0,2),16),n=2;a.length-n;n+=2)i=parseInt(a.substr(n,2),16)^r,e+=String.fromCharCode(i);e=document.createTextNode(e),c.parentNode.replaceChild(e,c)}}}catch(u){}}();/* ]]&gt; */&lt;/script&gt;\nFormat settings, CABAC                   : Yes\nFormat settings, ReFrames                : 3 frames\nCodec ID                                 : avc1\nCodec ID/Info                            : Advanced Video Coding\nDuration                                 : 44mn 1s\nBit rate                                 : 1 702 Kbps\nWidth                                    : 720 pixels\nHeight                                   : 576 pixels\nDisplay aspect ratio                     : 4:3\nFrame rate mode                          : Variable\nFrame rate                               : 31.404 fps\nOriginal frame rate                      : 25.000 fps\nMinimum frame rate                       : 8.333 fps\nMaximum frame rate                       : 50.000 fps\nStandard                                 : PAL\nColor space                              : YUV\nChroma subsampling                       : 4:2:0\nBit depth                                : 8 bits\nScan type                                : Interlaced\nScan order                               : Top Field First\nBits/(Pixel*Frame)                       : 0.131\nStream size                              : 536 MiB (93%)\nColor primaries                          : BT.601 PAL\nTransfer characteristics                 : BT.470 System B, BT.470 System G\nMatrix coefficients                      : BT.601\n\nAudio\nID                                       : 2\nFormat                                   : AAC\nFormat/Info                              : Advanced Audio Codec\nFormat profile                           : HE-AAC / LC\nCodec ID                                 : 40\nDuration                                 : 44mn 1s\nBit rate mode                            : Variable\nBit rate                                 : 126 Kbps\nMaximum bit rate                         : 128 Kbps\nChannel(s)                               : 2 channels\nChannel positions                        : Front: L R\nSampling rate                            : 48.0 KHz / 24.0 KHz\nCompression mode                         : Lossy\nStream size                              : 39.7 MiB (7%)\n\n","torrent":{"xt":"urn:btih:7f2e4328fa2a62ec68feb49016e6e553316b4432","amp;dn":"American+Car+Prospector+S01E08+-+shadowCopy","amp;tr":["udp%3A%2F%2Ftracker.openbittorrent.com%3A80","udp%3A%2F%2Fopen.demonii.com%3A1337","udp%3A%2F%2Ftracker.coppersurfer.tk%3A6969","udp%3A%2F%2Fexodus.desync.com%3A6969"],"infoHash":"7f2e4328fa2a62ec68feb49016e6e553316b4432","infoHashBuffer":{"type":"Buffer","data":[127,46,67,40,250,42,98,236,104,254,180,144,22,230,229,83,49,107,68,50]},"announce":[],"urlList":[]}}